<svg viewBox="0 0 220 220" xmlns="http://www.w3.org/2000/svg">
  <rect width="220" height="220" fill="#0a0a0f" rx="28"/>
  <g transform="translate(14, 23)">
    <!-- L-bracket 1 (bottom-left) -->
    <rect x="5.5" y="87" width="18" height="80.5" rx="9" fill="#00FF41"/>
    <rect x="5.5" y="149.5" width="98.5" height="18" rx="9" fill="#00FF41"/>
    <!-- L-bracket 2 (middle) -->
    <rect x="41.5" y="51" width="18" height="80.5" rx="9" fill="#00FF41"/>
    <rect x="41.5" y="113.5" width="98.5" height="18" rx="9" fill="#00FF41"/>
    <!-- Screen frame (top-right) -->
    <path fill="#00FF41" fill-rule="evenodd" d="
      M91,6 H173 A13,13 0 0 1 186,19 V82 A13,13 0 0 1 173,95 H91 A13,13 0 0 1 78,82 V19 A13,13 0 0 1 91,6 Z
      M102,42 H162 A6,6 0 0 1 168,48 V72 A6,6 0 0 1 162,78 H102 A6,6 0 0 1 96,72 V48 A6,6 0 0 1 102,42 Z
    "/>
  </g>
</svg>
